<svg width="132" height="93" viewBox="0 0 132 93" fill="none" xmlns="http://www.w3.org/2000/svg">
<path d="M0 7.6875C0 3.43535 4.21339 0 9.42857 0H122.571C127.787 0 132 3.43535 132 7.6875C132 11.9396 127.787 15.375 122.571 15.375H9.42857C4.21339 15.375 0 11.9396 0 7.6875ZM0 46.125C0 41.8729 4.21339 38.4375 9.42857 38.4375H122.571C127.787 38.4375 132 41.8729 132 46.125C132 50.3771 127.787 53.8125 122.571 53.8125H9.42857C4.21339 53.8125 0 50.3771 0 46.125ZM132 84.5625C132 88.8147 127.787 92.25 122.571 92.25H9.42857C4.21339 92.25 0 88.8147 0 84.5625C0 80.3103 4.21339 76.875 9.42857 76.875H122.571C127.787 76.875 132 80.3103 132 84.5625Z" fill="black"/>
</svg>
