<svg width="23" height="24" viewBox="0 0 23 24" fill="none" xmlns="http://www.w3.org/2000/svg">
<path d="M22.8203 2.98633L12.8027 23.0664C12.5332 23.6055 12.0391 23.875 11.4551 23.875H1.39258C0.628906 23.875 0 23.2461 0 22.4375V22.123H2.11133C2.4707 22.123 2.78516 21.7637 2.78516 21.4043C2.78516 21.0449 2.4707 20.7305 2.11133 20.7305H0V19.3379H2.11133C2.4707 19.3379 2.78516 19.0234 2.78516 18.6641C2.78516 18.2598 2.4707 17.9902 2.11133 17.9902H0V16.957C0 16.1484 0.628906 15.5195 1.4375 15.5195C1.57227 15.5195 1.70703 15.5195 1.8418 15.5645L11.7695 18.7988L20.2148 1.95312C20.4844 1.18945 21.0234 0.875 21.5625 0.875C22.2812 0.875 23 1.50391 23 2.35742C23 2.53711 22.9102 2.76172 22.8203 2.98633Z" fill="#434343"/>
</svg>
