<svg width="597" height="48" viewBox="0 0 597 48" fill="none" xmlns="http://www.w3.org/2000/svg">
<path d="M13.0495 37.3947H27.6321V47.3781H0V0.441523H13.0495V37.3947Z" fill="black"/>
<path d="M55.068 18.544H70.0431V28.4661H55.068V36.9164H72.0422V47.3658H42.0185V0.42925H72.0422V10.8787H55.068V18.544Z" fill="black"/>
<path d="M100.864 39.725L98.3375 47.3781H84.6256L101.735 0.441523H116.783L133.831 47.3781H120.046L117.519 39.725H100.864ZM114.245 29.7294L109.192 14.5458L104.2 29.7294H114.257H114.245Z" fill="black"/>
<path d="M172.035 15.8826C171.275 14.6439 170.245 13.6873 168.945 13.025C167.645 12.3627 166.087 12.0316 164.321 12.0316C161.034 12.0316 158.446 13.0986 156.57 15.2326C154.681 17.3666 153.737 20.2243 153.737 23.8178C153.737 27.8529 154.742 30.9313 156.766 33.0408C158.79 35.1503 161.721 36.2051 165.584 36.2051C170.159 36.2051 173.421 34.1446 175.371 30.0114H162.26V20.629H186.63V33.2738C185.612 35.7635 184.116 38.0938 182.141 40.2646C180.167 42.4355 177.665 44.2261 174.648 45.6242C171.631 47.0224 168.184 47.7215 164.333 47.7215C159.624 47.7215 155.466 46.7158 151.848 44.6921C148.23 42.6685 145.433 39.8599 143.459 36.2419C141.484 32.6238 140.491 28.4906 140.491 23.8301C140.491 19.1695 141.472 15.0977 143.459 11.4797C145.433 7.8616 148.218 5.04075 151.811 3.02935C155.405 1.0057 159.55 0 164.26 0C170.159 0 175.04 1.42269 178.904 4.25581C182.767 7.1012 185.158 10.9768 186.091 15.9072H172.048L172.035 15.8826Z" fill="black"/>
<path d="M213.244 0.441523V27.6689C213.244 30.1954 213.833 32.1577 215.01 33.5314C216.188 34.905 217.978 35.5918 220.37 35.5918C222.762 35.5918 224.577 34.8927 225.791 33.4946C227.017 32.0964 227.618 30.1586 227.618 27.6689V0.441523H240.668V27.6689C240.668 31.9738 239.76 35.6531 237.933 38.6825C236.118 41.7241 233.64 44.0053 230.513 45.5384C227.385 47.0715 223.915 47.8319 220.088 47.8319C216.261 47.8319 212.864 47.0715 209.872 45.5384C206.879 44.0053 204.524 41.7364 202.819 38.7193C201.115 35.7022 200.256 32.0228 200.256 27.6689V0.441523H213.244Z" fill="black"/>
<path d="M270.238 18.544H285.213V28.4661H270.238V36.9164H287.212V47.3658H257.188V0.42925H287.212V10.8787H270.238V18.544Z" fill="black"/>
<path d="M345.298 0.600977V46.8752H337.707V26.6387H315.937V46.8752H308.345V0.600977H315.937V20.4451H337.707V0.600977H345.298Z" fill="black"/>
<path d="M370.453 37.4193L367.129 46.8752H359.206L375.788 0.53965H384.582L401.164 46.8752H393.179L389.856 37.4193H370.453ZM387.697 31.2256L380.179 9.72583L372.587 31.2256H387.697Z" fill="black"/>
<path d="M414.299 11.4551C416.408 7.86159 419.266 5.05301 422.884 3.02935C426.502 1.0057 430.464 0 434.769 0C439.699 0 444.077 1.2142 447.916 3.63033C451.755 6.04645 454.539 9.48053 456.268 13.9203H447.143C445.942 11.4797 444.286 9.66448 442.152 8.46256C440.018 7.26063 437.553 6.65968 434.756 6.65968C431.69 6.65968 428.967 7.34649 426.564 8.72012C424.172 10.0938 422.295 12.0684 420.934 14.6439C419.585 17.2195 418.898 20.212 418.898 23.6338C418.898 27.0557 419.573 30.0482 420.934 32.6238C422.283 35.1994 424.16 37.1862 426.564 38.5844C428.967 39.9825 431.69 40.6816 434.756 40.6816C437.553 40.6816 440.018 40.0807 442.152 38.8787C444.286 37.6768 445.942 35.8616 447.143 33.421H456.268C454.539 37.8608 451.755 41.2826 447.916 43.6742C444.077 46.0658 439.699 47.2677 434.769 47.2677C430.415 47.2677 426.441 46.262 422.847 44.2384C419.254 42.2147 416.396 39.4061 414.287 35.8126C412.177 32.2191 411.122 28.1595 411.122 23.6338C411.122 19.1082 412.177 15.0486 414.287 11.4551H414.299Z" fill="black"/>
<path d="M497.281 46.8752L479.375 26.1726V46.8752H471.783V0.600977H479.375V21.7083L497.355 0.600977H506.872L486.77 23.7688L507.203 46.8752H497.281Z" fill="black"/>
<path d="M528.176 6.73327V20.3102H544.156V26.5038H528.176V40.6817H546.156V46.8752H520.596V0.53965H546.156V6.73327H528.176Z" fill="black"/>
<path d="M587.487 46.8752L576.841 28.368H571.053V46.8752H563.461V0.600977H579.442C582.998 0.600977 586.003 1.22646 588.468 2.46518C590.933 3.7039 592.773 5.3719 594 7.45688C595.226 9.54185 595.827 11.8721 595.827 14.4477C595.827 17.4648 594.956 20.212 593.202 22.665C591.449 25.1301 588.75 26.8104 585.108 27.6934L596.563 46.863H587.512L587.487 46.8752ZM571.053 22.3093H579.442C582.287 22.3093 584.421 21.5979 585.868 20.1752C587.315 18.7526 588.027 16.8515 588.027 14.4477C588.027 12.0438 587.315 10.1796 585.893 8.81824C584.47 7.46914 582.324 6.78232 579.429 6.78232H571.04V22.297L571.053 22.3093Z" fill="black"/>
</svg>
