<svg width="223" height="32" viewBox="0 0 223 32" fill="none" xmlns="http://www.w3.org/2000/svg">
<path d="M4.44053 12.7248H9.40273V16.1219H0V0.150243H4.44053V12.7248Z" fill="white"/>
<path d="M18.7387 6.31022H23.8344V9.68652H18.7387V12.562H24.5147V16.1178H14.2982V0.146066H24.5147V3.70183H18.7387V6.31022Z" fill="white"/>
<path d="M34.3223 13.5177L33.4625 16.1219H28.7966L34.6186 0.150243H39.7394L45.5404 16.1219H40.8495L39.9898 13.5177H34.3223ZM38.8755 10.1164L37.156 4.94968L35.4574 10.1164H38.8796H38.8755Z" fill="white"/>
<path d="M58.5406 5.40458C58.2819 4.98307 57.9313 4.65754 57.4889 4.43218C57.0466 4.20681 56.5165 4.09413 55.9156 4.09413C54.7971 4.09413 53.9165 4.45722 53.278 5.18339C52.6352 5.90957 52.3139 6.88198 52.3139 8.10479C52.3139 9.47785 52.6561 10.5254 53.3447 11.2432C54.0333 11.961 55.0308 12.32 56.3454 12.32C57.9021 12.32 59.0122 11.6188 59.6758 10.2124H55.2144V7.0197H63.507V11.3225C63.1606 12.1697 62.6515 12.9627 61.9795 13.7014C61.3076 14.4401 60.4562 15.0494 59.4296 15.5251C58.4029 16.0009 57.2302 16.2388 55.9197 16.2388C54.3171 16.2388 52.9023 15.8966 51.6712 15.208C50.44 14.5193 49.4885 13.5636 48.8166 12.3325C48.1446 11.1013 47.8066 9.69486 47.8066 8.10896C47.8066 6.52306 48.1405 5.13749 48.8166 3.90633C49.4885 2.67517 50.4358 1.71528 51.6587 1.03084C52.8815 0.342221 54.2921 0 55.8947 0C57.9021 0 59.5631 0.484118 60.8778 1.44818C62.1924 2.41641 63.0062 3.73522 63.3234 5.41293H58.5448L58.5406 5.40458Z" fill="white"/>
<path d="M72.5634 0.150243V9.41524C72.5634 10.275 72.7637 10.9427 73.1643 11.4101C73.565 11.8776 74.1743 12.1113 74.9881 12.1113C75.8019 12.1113 76.4196 11.8734 76.8328 11.3976C77.2501 10.9219 77.4546 10.2625 77.4546 9.41524V0.150243H81.8951V9.41524C81.8951 10.8801 81.5863 12.1321 80.9645 13.163C80.3468 14.198 79.5038 14.9743 78.4395 15.4959C77.3753 16.0176 76.1942 16.2764 74.8921 16.2764C73.59 16.2764 72.434 16.0176 71.4157 15.4959C70.3973 14.9743 69.5961 14.2022 69.0159 13.1755C68.4358 12.1488 68.1437 10.8968 68.1437 9.41524V0.150243H72.5634Z" fill="white"/>
<path d="M91.9573 6.31022H97.053V9.68652H91.9573V12.562H97.7333V16.1178H87.5167V0.146066H97.7333V3.70183H91.9573V6.31022Z" fill="white"/>
<path d="M117.499 0.204502V15.9508H114.916V9.06468H107.508V15.9508H104.925V0.204502H107.508V6.9571H114.916V0.204502H117.499Z" fill="white"/>
<path d="M126.059 12.7331L124.928 15.9508H122.232L127.874 0.183634H130.867L136.509 15.9508H133.792L132.661 12.7331H126.059ZM131.927 10.6255L129.368 3.30953L126.785 10.6255H131.927Z" fill="white"/>
<path d="M140.979 3.89798C141.697 2.67516 142.669 1.71945 143.9 1.03084C145.131 0.342221 146.479 0 147.944 0C149.622 0 151.112 0.413172 152.418 1.23534C153.724 2.0575 154.672 3.22606 155.26 4.73684H152.155C151.746 3.90633 151.183 3.28866 150.457 2.87966C149.73 2.47067 148.892 2.26617 147.94 2.26617C146.897 2.26617 145.97 2.49988 145.152 2.96731C144.338 3.43473 143.7 4.10665 143.237 4.98307C142.778 5.85949 142.544 6.8778 142.544 8.04219C142.544 9.20657 142.773 10.2249 143.237 11.1013C143.696 11.9777 144.334 12.6538 145.152 13.1296C145.97 13.6054 146.897 13.8433 147.94 13.8433C148.892 13.8433 149.73 13.6388 150.457 13.2298C151.183 12.8208 151.746 12.2031 152.155 11.3726H155.26C154.672 12.8834 153.724 14.0478 152.418 14.8616C151.112 15.6754 149.622 16.0844 147.944 16.0844C146.463 16.0844 145.11 15.7422 143.888 15.0535C142.665 14.3649 141.692 13.4092 140.975 12.1864C140.257 10.9636 139.898 9.58218 139.898 8.04219C139.898 6.50219 140.257 5.12079 140.975 3.89798H140.979Z" fill="white"/>
<path d="M169.216 15.9508L163.123 8.90609V15.9508H160.54V0.204502H163.123V7.38696L169.241 0.204502H172.48L165.64 8.0881L172.592 15.9508H169.216Z" fill="white"/>
<path d="M179.729 2.29121V6.91119H185.167V9.01878H179.729V13.8433H185.847V15.9508H177.15V0.183634H185.847V2.29121H179.729Z" fill="white"/>
<path d="M199.912 15.9508L196.289 9.65314H194.319V15.9508H191.736V0.204502H197.174C198.384 0.204502 199.407 0.417342 200.246 0.838858C201.084 1.26037 201.71 1.82796 202.128 2.53745C202.545 3.24693 202.75 4.03988 202.75 4.9163C202.75 5.94296 202.453 6.87781 201.857 7.71249C201.26 8.55135 200.342 9.1231 199.102 9.42359L203 15.9467H199.92L199.912 15.9508ZM194.319 7.59146H197.174C198.142 7.59146 198.868 7.3494 199.361 6.86529C199.853 6.38117 200.095 5.73429 200.095 4.9163C200.095 4.09831 199.853 3.46395 199.369 3.0007C198.885 2.54162 198.155 2.30791 197.17 2.30791H194.315V7.58729L194.319 7.59146Z" fill="white"/>
</svg>
