<svg width="451" height="528" viewBox="0 0 451 528" fill="none" xmlns="http://www.w3.org/2000/svg">
<g clip-path="url(#clip0_86_423)">
<path d="M21.22 404.232H43.9912V419.821H0.842773V346.528H21.22V404.232Z" fill="white"/>
<path d="M86.8333 374.796H110.217V390.29H86.8333V403.485H113.339V419.802H66.456V346.509H113.339V362.826H86.8333V374.796Z" fill="white"/>
<path d="M158.345 407.871L154.4 419.821H132.989L159.705 346.528H183.204L209.825 419.821H188.298L184.353 407.871H158.345ZM179.24 392.262L171.349 368.553L163.554 392.262H179.259H179.24Z" fill="white"/>
<path d="M269.482 370.64C268.294 368.706 266.686 367.212 264.655 366.178C262.625 365.144 260.193 364.627 257.435 364.627C252.303 364.627 248.262 366.293 245.332 369.625C242.382 372.957 240.908 377.42 240.908 383.031C240.908 389.332 242.478 394.139 245.638 397.433C248.798 400.727 253.375 402.374 259.408 402.374C266.551 402.374 271.646 399.157 274.691 392.703H254.218V378.052H292.272V397.797C290.682 401.685 288.346 405.324 285.263 408.713C282.179 412.103 278.272 414.899 273.561 417.083C268.85 419.266 263.468 420.358 257.454 420.358C250.1 420.358 243.608 418.787 237.958 415.627C232.308 412.467 227.942 408.081 224.859 402.432C221.775 396.782 220.224 390.328 220.224 383.05C220.224 375.773 221.756 369.414 224.859 363.765C227.942 358.115 232.289 353.71 237.901 350.569C243.512 347.409 249.985 345.839 257.34 345.839C266.551 345.839 274.174 348.06 280.206 352.484C286.239 356.928 289.974 362.98 291.429 370.678H269.501L269.482 370.64Z" fill="white"/>
<path d="M333.831 346.528V389.045C333.831 392.99 334.75 396.054 336.589 398.199C338.427 400.344 341.223 401.417 344.958 401.417C348.692 401.417 351.527 400.325 353.423 398.142C355.338 395.958 356.276 392.933 356.276 389.045V346.528H376.654V389.045C376.654 395.767 375.237 401.512 372.383 406.243C369.549 410.992 365.68 414.555 360.796 416.949C355.913 419.343 350.493 420.53 344.517 420.53C338.542 420.53 333.237 419.343 328.564 416.949C323.891 414.555 320.214 411.012 317.552 406.3C314.89 401.589 313.549 395.844 313.549 389.045V346.528H333.831Z" fill="white"/>
<path d="M422.828 374.796H446.212V390.29H422.828V403.485H449.334V419.802H402.451V346.509H449.334V362.826H422.828V374.796Z" fill="white"/>
<path d="M58.6612 454.888V527.146H46.8063V495.546H12.8123V527.146H0.95752V454.888H12.8123V485.875H46.8063V454.888H58.6612Z" fill="white"/>
<path d="M97.941 512.381L92.7509 527.146H80.379L106.272 454.792H120.004L145.896 527.146H133.429L128.239 512.381H97.941ZM124.868 502.709L113.128 469.136L101.273 502.709H124.868Z" fill="white"/>
<path d="M166.408 471.837C169.702 466.225 174.164 461.84 179.814 458.68C185.464 455.52 191.65 453.949 198.372 453.949C206.071 453.949 212.908 455.845 218.902 459.618C224.897 463.391 229.244 468.753 231.944 475.686H217.696C215.819 471.875 213.233 469.041 209.901 467.164C206.569 465.287 202.719 464.349 198.353 464.349C193.565 464.349 189.313 465.421 185.559 467.566C181.825 469.711 178.895 472.794 176.769 476.816C174.662 480.838 173.59 485.511 173.59 490.854C173.59 496.198 174.643 500.871 176.769 504.892C178.875 508.914 181.806 512.017 185.559 514.2C189.313 516.383 193.565 517.475 198.353 517.475C202.719 517.475 206.569 516.537 209.901 514.66C213.233 512.783 215.819 509.948 217.696 506.137H231.944C229.244 513.07 224.897 518.413 218.902 522.148C212.908 525.882 206.071 527.759 198.372 527.759C191.573 527.759 185.368 526.189 179.756 523.029C174.145 519.869 169.683 515.483 166.389 509.872C163.095 504.26 161.448 497.921 161.448 490.854C161.448 483.787 163.095 477.448 166.389 471.837H166.408Z" fill="white"/>
<path d="M295.987 527.146L268.026 494.819V527.146H256.171V454.888H268.026V487.847L296.102 454.888H310.964L279.574 491.065L311.481 527.146H295.987Z" fill="white"/>
<path d="M344.23 464.463V485.664H369.185V495.336H344.23V517.475H372.306V527.146H332.394V454.792H372.306V464.463H344.23Z" fill="white"/>
<path d="M436.847 527.146L420.223 498.247H411.184V527.146H399.329V454.888H424.283C429.837 454.888 434.53 455.864 438.379 457.799C442.228 459.733 445.101 462.338 447.016 465.593C448.932 468.849 449.87 472.488 449.87 476.51C449.87 481.221 448.51 485.511 445.772 489.341C443.033 493.191 438.82 495.814 433.132 497.193L451.019 527.127H436.885L436.847 527.146ZM411.184 488.786H424.283C428.727 488.786 432.059 487.675 434.319 485.454C436.579 483.232 437.69 480.263 437.69 476.51C437.69 472.756 436.579 469.845 434.357 467.719C432.136 465.613 428.784 464.54 424.264 464.54H411.165V488.767L411.184 488.786Z" fill="white"/>
<path d="M221.335 306.176C343.574 306.176 442.669 286.043 442.669 261.208C442.669 236.373 343.574 216.24 221.335 216.24C99.0948 216.24 0 236.373 0 261.208C0 286.043 99.0948 306.176 221.335 306.176Z" fill="white"/>
<path d="M313.818 112.094C290.663 69.1562 239.605 49.2002 202.7 21.8901C200.67 20.3772 198.219 19.4387 195.691 19.5153C186.287 19.8026 196.84 32.5575 189.62 40.1033C185.904 43.9719 180.484 45.9636 175.122 45.7147C169.76 45.4657 164.646 43.4548 159.839 41.0608C151.527 36.9049 143.867 31.5425 137.068 25.2225C129.752 18.4237 128.009 11.2419 124.753 1.781C124.524 1.11069 124.217 0.344629 123.547 0.0765076C122.359 -0.402281 121.325 0.995782 120.827 2.16403C113.665 18.9599 111.807 37.8242 115.158 55.7501C116.518 62.9702 118.701 70.2287 116.403 77.5828C115.273 81.1642 112.879 84.3434 109.47 85.8946C99.4925 90.4527 90.3189 79.0575 80.4941 76.6444C77.8703 76.0124 75.7828 78.8277 77.0085 81.2408C86.3545 99.9136 85.0713 122.551 83.386 143.656C82.2177 158.173 81.0878 173.034 83.5967 187.474C85.8757 200.689 92.3681 213.444 98.7264 225.28C130.365 284.19 205.113 308.436 264.081 276.931C323.489 245.197 345.743 171.253 313.798 112.017L313.818 112.094Z" fill="white"/>
<path d="M205.573 275.553C263.98 275.553 311.328 228.204 311.328 169.798C311.328 111.391 263.98 64.0427 205.573 64.0427C147.166 64.0427 99.8179 111.391 99.8179 169.798C99.8179 228.204 147.166 275.553 205.573 275.553Z" fill="white"/>
<path d="M127.773 215.974C129.305 219.076 129.649 224.783 126.375 226.948C123.808 228.633 120.055 227.311 117.68 225.798C113.773 223.309 108.047 214.135 111.513 209.826C116.569 203.525 125.321 210.994 127.773 215.974Z" fill="black"/>
<path d="M177.318 206.264C170.806 206.609 165.942 202.242 165.75 195.788C165.559 189.296 170.71 183.646 177.088 183.397C183.274 183.148 188.579 188.146 188.579 194.179C188.579 200.748 183.753 205.919 177.318 206.264Z" fill="black"/>
<path d="M200.893 176.732C201.008 169.474 206.026 164.705 213.399 164.801C219.394 164.896 223.071 168.823 222.956 174.989C222.841 180.888 216.368 187.208 210.392 187.304C204.992 187.38 200.798 182.746 200.912 176.732H200.893Z" fill="black"/>
<path d="M242.586 163.996C237.664 164.226 233.623 159.649 233.681 153.903C233.757 147.756 238.143 142.604 243.659 142.221C249.059 141.838 253.369 146.415 253.196 152.295C253.024 158.232 248.025 163.747 242.567 163.996H242.586Z" fill="black"/>
<path d="M154.661 208.983C154.872 213.369 152.306 216.797 147.269 217.793C141.926 218.846 135.778 212.775 135.146 206.111C134.648 200.71 136.985 197.378 142.098 196.65C148.131 195.788 153.991 201.208 154.661 208.964V208.983Z" fill="black"/>
<path d="M191.203 151.701C191.413 159.113 186.53 164.533 180.65 164.609C175.537 164.686 172.875 161.488 172.606 156.01C172.319 150.073 177.184 144.826 182.833 144.941C187.621 145.036 190.896 147.258 191.183 151.682L191.203 151.701Z" fill="black"/>
<path d="M215.525 143.389C211.676 143.351 208.075 141.742 207.462 135.882C206.888 130.27 211.273 125.636 217.095 125.483C221.826 125.368 225.12 127.513 225.484 133.296C225.809 138.429 221.481 142.949 215.525 143.37V143.389Z" fill="black"/>
<path d="M155.638 170.489C156.021 176.426 151.559 181.884 146.599 181.865C141.715 181.865 139.015 178.8 138.555 173.649C138.057 168.095 141.868 163.192 146.79 163.039C151.942 162.886 154.853 165.797 155.657 170.508L155.638 170.489Z" fill="black"/>
<path d="M247.374 122.131C242.969 121.882 239.579 119.814 239.273 114.202C238.947 108.342 242.318 105.718 246.78 105.584C251.166 105.45 254.786 107.882 254.958 113.398C255.13 118.875 251.836 121.461 247.374 122.131Z" fill="black"/>
<path d="M269.035 86.6624C275.469 87.9455 278.438 91.0289 278.649 96.6595C278.84 101.83 275.757 104.454 271.946 104.186C267.483 103.899 263.806 100.528 264.266 94.8784C264.534 91.6992 267.694 88.8457 269.035 86.6432V86.6624Z" fill="black"/>
<path d="M110.019 185.465C110.096 180.601 111.226 176.33 116.722 176.253C121.74 176.196 123.578 180.026 123.961 184.603C124.364 189.487 122.87 193.7 117.737 194.122C112.336 194.581 110.785 190.157 110 185.465H110.019Z" fill="black"/>
<path d="M279.147 138.142C275.833 136.59 271.716 138.238 268.23 137.069C263.902 135.614 262.504 130.29 263.346 126.191C263.787 124.085 265.779 121.327 267.943 120.676C269.092 120.331 270.318 120.427 271.524 120.503C274.091 120.676 276.695 120.752 279.185 120.139C281.675 119.526 284.068 118.09 285.313 115.849C286.386 113.934 286.52 111.655 286.635 109.472C286.826 105.814 285.792 99.8578 289.699 97.8086C291.423 96.9085 293.606 97.2723 295.31 98.2299C298.413 100.011 300.501 103.324 302.454 106.197C315.783 125.789 322.18 149.537 320.514 173.17C318.809 197.243 311.225 222.102 295.808 240.564C262.772 280.131 206.409 293.02 160.694 272.873C151.655 268.889 143.515 263.144 136.391 256.345C132.656 252.802 129.209 248.972 125.972 244.988C123.502 241.943 119.289 237.902 122.64 234.091C125.743 230.548 131.565 228.901 136.123 229.131C139.742 229.322 143.228 230.586 146.828 230.931C149.874 231.218 153.934 230.72 155.983 228.135C157.955 225.626 158.607 222.217 161.307 220.149C165.252 217.104 170.251 216.376 175.096 217.008C179.616 217.602 186.415 221.125 189.9 216.836C193.846 211.99 197.178 206.723 202.33 202.951C205.7 200.48 209.856 199.542 213.955 200.423C215.755 200.806 217.574 202.108 219.355 201.955C223.435 201.61 225.503 197.55 227.035 194.39C228.989 190.349 231.076 186.308 233.891 182.803C237.243 178.628 242.95 175.775 248.351 177.422C250.821 178.169 252.085 179.72 254.288 177.364C256.758 174.74 256.318 170.872 257.352 167.654C258.214 164.935 259.459 162.33 261.259 160.109C264.63 155.934 269.59 153.731 274.837 153.137C281.138 152.41 286.386 141.761 279.185 138.123L279.147 138.142ZM236.017 208.505C235.538 209.749 237.454 210.937 238.641 211.531C240.25 212.316 242.031 212.622 243.812 212.335C248.121 211.626 252.066 207.968 254.173 204.253C255.322 202.223 256.011 199.522 255.399 197.205C255.245 196.631 252.66 192.532 252.354 193.375C250.63 197.952 248.159 202.146 243.908 204.808C242.778 205.517 241.571 206.111 240.307 206.551C239.311 206.896 237.817 206.953 236.917 207.528C236.419 207.853 236.132 208.179 236.017 208.505ZM221.922 216.548C221.692 216.414 221.443 216.318 221.175 216.338C220.677 216.376 220.256 216.721 220.007 217.142C219.758 217.563 219.604 218.042 219.451 218.502C218.283 221.892 215.966 224.822 212.537 225.856C208.918 226.948 205.087 226.564 201.372 227.062C200.529 227.177 199.495 227.445 199.304 228.269C199.15 228.863 199.534 229.456 199.917 229.916C202.157 232.578 205.547 233.574 208.956 233.517C213.074 233.459 217.689 231.142 220.256 227.924C222.056 225.684 223.741 220.283 222.63 217.391C222.496 217.046 222.247 216.721 221.941 216.51L221.922 216.548ZM278.859 168.42C277.404 168.171 277.71 171.561 277.557 172.48C277.231 174.453 275.833 176.56 274.588 178.073C273.439 179.49 272.041 180.658 270.433 181.52C269.073 182.248 265.932 182.324 265.3 183.818C264.859 184.833 265.702 185.982 266.698 186.499C268.288 187.323 270.088 187.783 271.85 187.438C275.757 186.691 279.51 182.937 280.966 179.318C281.713 177.422 281.866 175.392 281.56 173.4C281.253 171.427 281.349 169.493 279.166 168.535C279.051 168.478 278.955 168.459 278.859 168.44V168.42ZM185.84 238.879C186.051 238.247 186.185 237.577 186.261 236.868C186.319 236.159 186.3 235.374 185.859 234.819C185.361 234.187 184.442 234.053 183.657 234.225C182.872 234.397 182.182 234.838 181.474 235.221C177.222 237.577 172.089 238.324 167.321 237.27C166.382 237.06 165.118 236.945 164.735 237.826C164.467 238.458 164.927 239.166 165.386 239.683C167.187 241.694 169.37 243.035 171.802 244.088C173.851 244.988 175.192 245.984 177.548 245.659C181.378 245.122 184.653 242.479 185.821 238.879H185.84ZM177.318 206.264C170.806 206.609 165.942 202.242 165.75 195.788C165.559 189.296 170.71 183.646 177.088 183.397C183.274 183.148 188.579 188.146 188.579 194.179C188.579 200.748 183.753 205.919 177.318 206.264ZM200.893 176.732C201.008 169.474 206.026 164.705 213.399 164.801C219.394 164.896 223.071 168.823 222.956 174.989C222.841 180.888 216.368 187.208 210.392 187.304C204.992 187.38 200.798 182.746 200.912 176.732H200.893ZM242.586 163.996C237.664 164.226 233.623 159.649 233.681 153.903C233.757 147.756 238.143 142.604 243.659 142.221C249.059 141.838 253.369 146.415 253.196 152.295C253.024 158.232 248.025 163.747 242.567 163.996H242.586ZM154.661 208.983C154.872 213.369 152.306 216.797 147.269 217.793C141.926 218.846 135.778 212.775 135.146 206.111C134.648 200.71 136.985 197.378 142.098 196.65C148.131 195.788 153.991 201.208 154.661 208.964V208.983ZM191.203 151.701C191.413 159.113 186.53 164.533 180.65 164.609C175.537 164.686 172.875 161.488 172.606 156.01C172.319 150.073 177.184 144.826 182.833 144.941C187.621 145.036 190.896 147.258 191.183 151.682L191.203 151.701ZM215.525 143.389C211.676 143.351 208.075 141.742 207.462 135.882C206.888 130.27 211.273 125.636 217.095 125.483C221.826 125.368 225.12 127.513 225.484 133.296C225.809 138.429 221.481 142.949 215.525 143.37V143.389ZM155.638 170.489C156.021 176.426 151.559 181.884 146.599 181.865C141.715 181.865 139.015 178.8 138.555 173.649C138.057 168.095 141.868 163.192 146.79 163.039C151.942 162.886 154.853 165.797 155.657 170.508L155.638 170.489ZM247.374 122.131C242.969 121.882 239.579 119.814 239.273 114.202C238.947 108.342 242.318 105.718 246.78 105.584C251.166 105.45 254.786 107.882 254.958 113.398C255.13 118.875 251.836 121.461 247.374 122.131ZM269.035 86.6624C275.469 87.9455 278.438 91.0289 278.649 96.6595C278.84 101.83 275.757 104.454 271.946 104.186C267.483 103.899 263.806 100.528 264.266 94.8784C264.534 91.6992 267.694 88.8457 269.035 86.6432V86.6624ZM110.019 185.465C110.096 180.601 111.226 176.33 116.722 176.253C121.74 176.196 123.578 180.026 123.961 184.603C124.364 189.487 122.87 193.7 117.737 194.122C112.336 194.581 110.785 190.157 110 185.465H110.019Z" fill="black"/>
<path d="M148.188 142.451C154.01 146.549 169.695 136.303 157.496 129.849C151.521 126.689 144.32 134.043 146.56 140.268C146.905 141.225 147.46 141.953 148.188 142.451Z" fill="black"/>
<path d="M118.886 156.412C122.334 160.894 136.659 156.719 128.922 148.962C125.13 145.17 117.929 149.116 118.178 154.363C118.216 155.167 118.465 155.857 118.886 156.393V156.412Z" fill="black"/>
<path d="M185.802 125.846C191.375 129.677 206.141 120.503 194.478 114.432C188.77 111.464 182.048 118.109 184.251 123.816C184.595 124.697 185.132 125.368 185.821 125.827L185.802 125.846Z" fill="black"/>
<path d="M215.985 110.334C221.462 114.011 235.711 105.603 224.258 99.7621C218.666 96.9085 212.193 103.037 214.433 108.419C214.778 109.261 215.314 109.874 215.985 110.334Z" fill="black"/>
<path d="M242.452 91.412C246.531 94.1506 257.141 87.8881 248.619 83.5407C244.444 81.4149 239.637 85.9729 241.303 89.9947C241.552 90.6076 241.954 91.0864 242.452 91.412Z" fill="black"/>
</g>
<defs>
<clipPath id="clip0_86_423">
<rect width="451" height="527.759" fill="white"/>
</clipPath>
</defs>
</svg>
