<svg width="452" height="528" viewBox="0 0 452 528" fill="none" xmlns="http://www.w3.org/2000/svg">
<path d="M21.22 404.252H43.9912V419.841H0.842773V346.548H21.22V404.252Z" fill="black"/>
<path d="M86.8333 374.816H110.217V390.31H86.8333V403.505H113.339V419.822H66.456V346.529H113.339V362.846H86.8333V374.816Z" fill="black"/>
<path d="M158.345 407.891L154.4 419.841H132.989L159.705 346.548H183.204L209.825 419.841H188.298L184.353 407.891H158.345ZM179.24 392.282L171.349 368.573L163.554 392.282H179.259H179.24Z" fill="black"/>
<path d="M269.482 370.66C268.294 368.726 266.686 367.232 264.655 366.198C262.625 365.164 260.193 364.647 257.435 364.647C252.303 364.647 248.262 366.313 245.332 369.645C242.382 372.977 240.908 377.44 240.908 383.051C240.908 389.352 242.478 394.159 245.638 397.453C248.798 400.747 253.375 402.394 259.408 402.394C266.551 402.394 271.646 399.177 274.691 392.723H254.218V378.072H292.272V397.817C290.682 401.705 288.346 405.344 285.263 408.733C282.179 412.123 278.272 414.919 273.561 417.103C268.85 419.286 263.468 420.378 257.454 420.378C250.1 420.378 243.608 418.807 237.958 415.647C232.308 412.487 227.942 408.101 224.859 402.452C221.775 396.802 220.224 390.348 220.224 383.07C220.224 375.793 221.756 369.434 224.859 363.785C227.942 358.135 232.289 353.73 237.901 350.589C243.512 347.429 249.985 345.859 257.34 345.859C266.551 345.859 274.174 348.08 280.206 352.504C286.239 356.948 289.974 363 291.429 370.698H269.501L269.482 370.66Z" fill="black"/>
<path d="M333.831 346.548V389.065C333.831 393.01 334.75 396.074 336.589 398.219C338.427 400.364 341.223 401.437 344.958 401.437C348.692 401.437 351.527 400.345 353.423 398.162C355.338 395.978 356.276 392.953 356.276 389.065V346.548H376.654V389.065C376.654 395.787 375.237 401.532 372.383 406.263C369.549 411.012 365.68 414.575 360.796 416.969C355.913 419.363 350.493 420.55 344.517 420.55C338.542 420.55 333.237 419.363 328.564 416.969C323.891 414.575 320.214 411.032 317.552 406.32C314.89 401.609 313.549 395.864 313.549 389.065V346.548H333.831Z" fill="black"/>
<path d="M422.828 374.816H446.212V390.31H422.828V403.505H449.334V419.822H402.451V346.529H449.334V362.846H422.828V374.816Z" fill="black"/>
<path d="M58.6612 454.908V527.166H46.8063V495.566H12.8123V527.166H0.95752V454.908H12.8123V485.895H46.8063V454.908H58.6612Z" fill="black"/>
<path d="M97.941 512.401L92.7509 527.166H80.379L106.272 454.812H120.004L145.896 527.166H133.429L128.239 512.401H97.941ZM124.868 502.729L113.128 469.156L101.273 502.729H124.868Z" fill="black"/>
<path d="M166.408 471.857C169.702 466.245 174.164 461.86 179.814 458.7C185.464 455.54 191.65 453.969 198.372 453.969C206.071 453.969 212.908 455.865 218.902 459.638C224.897 463.411 229.244 468.773 231.944 475.706H217.696C215.819 471.895 213.233 469.061 209.901 467.184C206.569 465.307 202.719 464.369 198.353 464.369C193.565 464.369 189.313 465.441 185.559 467.586C181.825 469.731 178.895 472.814 176.769 476.836C174.662 480.858 173.59 485.531 173.59 490.874C173.59 496.218 174.643 500.891 176.769 504.912C178.875 508.934 181.806 512.037 185.559 514.22C189.313 516.403 193.565 517.495 198.353 517.495C202.719 517.495 206.569 516.557 209.901 514.68C213.233 512.803 215.819 509.968 217.696 506.157H231.944C229.244 513.09 224.897 518.433 218.902 522.168C212.908 525.903 206.071 527.779 198.372 527.779C191.573 527.779 185.368 526.209 179.756 523.049C174.145 519.889 169.683 515.503 166.389 509.892C163.095 504.28 161.448 497.941 161.448 490.874C161.448 483.807 163.095 477.468 166.389 471.857H166.408Z" fill="black"/>
<path d="M295.987 527.166L268.026 494.839V527.166H256.171V454.908H268.026V487.867L296.102 454.908H310.964L279.574 491.085L311.481 527.166H295.987Z" fill="black"/>
<path d="M344.23 464.483V485.684H369.185V495.356H344.23V517.495H372.306V527.166H332.394V454.812H372.306V464.483H344.23Z" fill="black"/>
<path d="M436.847 527.166L420.223 498.267H411.184V527.166H399.329V454.908H424.283C429.837 454.908 434.53 455.884 438.379 457.819C442.228 459.753 445.101 462.358 447.016 465.613C448.932 468.869 449.87 472.508 449.87 476.53C449.87 481.241 448.51 485.531 445.772 489.361C443.033 493.211 438.82 495.835 433.132 497.213L451.019 527.147H436.885L436.847 527.166ZM411.184 488.806H424.283C428.727 488.806 432.059 487.695 434.319 485.474C436.579 483.252 437.69 480.283 437.69 476.53C437.69 472.776 436.579 469.865 434.357 467.739C432.136 465.633 428.784 464.56 424.264 464.56H411.165V488.787L411.184 488.806Z" fill="black"/>
<path d="M221.335 306.196C343.574 306.196 442.669 286.063 442.669 261.228C442.669 236.393 343.574 216.26 221.335 216.26C99.0948 216.26 0 236.393 0 261.228C0 286.063 99.0948 306.196 221.335 306.196Z" fill="black"/>
<path d="M313.818 112.114C290.663 69.1762 239.605 49.2203 202.7 21.9101C200.67 20.3972 198.219 19.4587 195.691 19.5354C186.287 19.8226 196.84 32.5776 189.62 40.1233C185.904 43.9919 180.484 45.9837 175.122 45.7347C169.76 45.4857 164.646 43.4748 159.839 41.0809C151.527 36.925 143.867 31.5625 137.068 25.2425C129.752 18.4437 128.009 11.2619 124.753 1.80102C124.524 1.13071 124.217 0.364649 123.547 0.0965271C122.359 -0.382262 121.325 1.0158 120.827 2.18405C113.665 18.98 111.807 37.8442 115.158 55.7701C116.518 62.9902 118.701 70.2487 116.403 77.6029C115.273 81.1842 112.879 84.3634 109.47 85.9146C99.4925 90.4727 90.3189 79.0775 80.4941 76.6645C77.8703 76.0324 75.7828 78.8477 77.0085 81.2608C86.3545 99.9336 85.0713 122.571 83.386 143.676C82.2177 158.193 81.0878 173.054 83.5967 187.494C85.8757 200.709 92.3681 213.464 98.7264 225.3C130.365 284.21 205.113 308.456 264.081 276.951C323.489 245.217 345.743 171.273 313.798 112.037L313.818 112.114Z" fill="black"/>
<path d="M205.573 275.572C263.98 275.572 311.328 228.224 311.328 169.817C311.328 111.411 263.98 64.0625 205.573 64.0625C147.166 64.0625 99.8179 111.411 99.8179 169.817C99.8179 228.224 147.166 275.572 205.573 275.572Z" fill="white"/>
<path d="M123.661 214.9C125.193 218.003 125.538 223.71 122.263 225.874C119.697 227.56 115.943 226.238 113.568 224.725C109.662 222.236 103.935 213.062 107.402 208.753C112.458 202.452 121.21 209.921 123.661 214.9Z" fill="black"/>
<path d="M173.206 205.191C166.695 205.535 161.83 201.169 161.639 194.715C161.447 188.222 166.599 182.573 172.977 182.324C179.163 182.075 184.467 187.073 184.467 193.106C184.467 199.675 179.641 204.846 173.206 205.191Z" fill="black"/>
<path d="M196.782 175.659C196.897 168.4 201.915 163.632 209.288 163.727C215.282 163.823 218.959 167.749 218.845 173.916C218.73 179.815 212.256 186.135 206.281 186.231C200.88 186.307 196.686 181.672 196.801 175.659H196.782Z" fill="black"/>
<path d="M238.475 162.923C233.553 163.153 229.512 158.576 229.569 152.83C229.646 146.683 234.032 141.531 239.547 141.148C244.948 140.765 249.257 145.342 249.085 151.222C248.912 157.159 243.914 162.674 238.456 162.923H238.475Z" fill="black"/>
<path d="M150.55 207.91C150.761 212.296 148.194 215.724 143.158 216.72C137.814 217.773 131.667 211.702 131.035 205.037C130.537 199.637 132.873 196.304 137.987 195.577C144.019 194.715 149.88 200.135 150.55 207.891V207.91Z" fill="black"/>
<path d="M187.091 150.628C187.302 158.039 182.418 163.459 176.539 163.536C171.425 163.613 168.763 160.414 168.495 154.937C168.208 149 173.072 143.752 178.722 143.867C183.51 143.963 186.785 146.185 187.072 150.609L187.091 150.628Z" fill="black"/>
<path d="M211.414 142.316C207.564 142.278 203.964 140.669 203.351 134.809C202.776 129.197 207.162 124.563 212.984 124.409C217.715 124.294 221.009 126.439 221.373 132.223C221.698 137.356 217.37 141.876 211.414 142.297V142.316Z" fill="black"/>
<path d="M151.527 169.415C151.91 175.352 147.448 180.811 142.487 180.791C137.604 180.791 134.903 177.727 134.444 172.575C133.946 167.022 137.757 162.119 142.679 161.966C147.831 161.812 150.742 164.723 151.546 169.435L151.527 169.415Z" fill="black"/>
<path d="M243.263 121.058C238.858 120.809 235.468 118.74 235.162 113.129C234.836 107.269 238.207 104.645 242.669 104.511C247.055 104.377 250.674 106.809 250.847 112.325C251.019 117.802 247.725 120.388 243.263 121.058Z" fill="black"/>
<path d="M264.923 85.5891C271.358 86.8723 274.327 89.9557 274.537 95.5863C274.729 100.757 271.645 103.381 267.834 103.113C263.372 102.826 259.695 99.4549 260.154 93.8052C260.423 90.626 263.583 87.7724 264.923 85.57V85.5891Z" fill="black"/>
<path d="M105.908 184.392C105.984 179.527 107.114 175.257 112.611 175.18C117.629 175.123 119.467 178.953 119.85 183.53C120.252 188.414 118.759 192.627 113.626 193.049C108.225 193.508 106.674 189.084 105.889 184.392H105.908Z" fill="black"/>
<path d="M275.035 137.069C271.722 135.517 267.604 137.164 264.119 135.996C259.791 134.541 258.393 129.216 259.235 125.118C259.676 123.011 261.667 120.253 263.832 119.602C264.981 119.258 266.206 119.353 267.413 119.43C269.979 119.602 272.584 119.679 275.074 119.066C277.563 118.453 279.957 117.017 281.202 114.776C282.275 112.861 282.409 110.582 282.523 108.399C282.715 104.741 281.681 98.7846 285.588 96.7353C287.311 95.8352 289.495 96.1991 291.199 97.1567C294.302 98.9378 296.389 102.251 298.343 105.124C311.672 124.716 318.069 148.464 316.403 172.097C314.698 196.17 307.114 221.029 291.697 239.491C258.661 279.058 202.298 291.947 156.583 271.8C147.543 267.816 139.404 262.071 132.28 255.272C128.545 251.729 125.098 247.899 121.861 243.915C119.391 240.87 115.177 236.829 118.529 233.018C121.631 229.475 127.453 227.828 132.011 228.058C135.631 228.249 139.117 229.513 142.717 229.858C145.762 230.145 149.822 229.647 151.872 227.062C153.844 224.553 154.495 221.144 157.196 219.075C161.141 216.03 166.139 215.303 170.985 215.935C175.505 216.528 182.303 220.052 185.789 215.762C189.734 210.917 193.067 205.65 198.218 201.877C201.589 199.407 205.745 198.468 209.843 199.349C211.644 199.732 213.463 201.035 215.244 200.882C219.323 200.537 221.392 196.477 222.924 193.317C224.877 189.276 226.965 185.235 229.78 181.73C233.132 177.555 238.839 174.701 244.24 176.348C246.71 177.095 247.974 178.647 250.176 176.291C252.647 173.667 252.207 169.799 253.241 166.581C254.103 163.862 255.347 161.257 257.148 159.035C260.518 154.86 265.479 152.658 270.726 152.064C277.027 151.336 282.275 140.688 275.074 137.049L275.035 137.069ZM231.906 207.431C231.427 208.676 233.342 209.864 234.53 210.457C236.138 211.242 237.919 211.549 239.701 211.262C244.01 210.553 247.955 206.895 250.062 203.18C251.211 201.15 251.9 198.449 251.287 196.132C251.134 195.557 248.549 191.459 248.242 192.302C246.519 196.879 244.048 201.073 239.796 203.735C238.666 204.444 237.46 205.037 236.196 205.478C235.2 205.823 233.706 205.88 232.806 206.455C232.308 206.78 232.021 207.106 231.906 207.431ZM217.81 215.475C217.581 215.341 217.332 215.245 217.063 215.264C216.565 215.303 216.144 215.647 215.895 216.069C215.646 216.49 215.493 216.969 215.34 217.428C214.172 220.818 211.854 223.748 208.426 224.783C204.806 225.874 200.976 225.491 197.261 225.989C196.418 226.104 195.384 226.372 195.192 227.196C195.039 227.789 195.422 228.383 195.805 228.843C198.046 231.505 201.436 232.501 204.845 232.443C208.962 232.386 213.578 230.068 216.144 226.851C217.944 224.61 219.63 219.21 218.519 216.318C218.385 215.973 218.136 215.647 217.83 215.437L217.81 215.475ZM274.748 167.347C273.292 167.098 273.599 170.488 273.446 171.407C273.12 173.38 271.722 175.487 270.477 177C269.328 178.417 267.93 179.585 266.321 180.447C264.961 181.175 261.821 181.251 261.189 182.745C260.748 183.76 261.591 184.909 262.587 185.426C264.176 186.25 265.977 186.709 267.738 186.365C271.645 185.618 275.399 181.864 276.855 178.244C277.602 176.348 277.755 174.318 277.448 172.327C277.142 170.354 277.238 168.42 275.054 167.462C274.939 167.405 274.844 167.385 274.748 167.366V167.347ZM181.729 237.806C181.939 237.174 182.074 236.503 182.15 235.795C182.208 235.086 182.188 234.301 181.748 233.746C181.25 233.114 180.331 232.98 179.546 233.152C178.76 233.324 178.071 233.765 177.362 234.148C173.111 236.503 167.978 237.25 163.209 236.197C162.271 235.986 161.007 235.871 160.624 236.752C160.356 237.384 160.815 238.093 161.275 238.61C163.075 240.621 165.258 241.962 167.691 243.015C169.74 243.915 171.081 244.911 173.436 244.585C177.267 244.049 180.541 241.406 181.71 237.806H181.729ZM173.206 205.191C166.695 205.535 161.83 201.169 161.639 194.715C161.447 188.222 166.599 182.573 172.977 182.324C179.163 182.075 184.467 187.073 184.467 193.106C184.467 199.675 179.641 204.846 173.206 205.191ZM196.782 175.659C196.897 168.4 201.915 163.632 209.288 163.727C215.282 163.823 218.959 167.749 218.845 173.916C218.73 179.815 212.256 186.135 206.281 186.231C200.88 186.307 196.686 181.672 196.801 175.659H196.782ZM238.475 162.923C233.553 163.153 229.512 158.576 229.569 152.83C229.646 146.683 234.032 141.531 239.547 141.148C244.948 140.765 249.257 145.342 249.085 151.222C248.912 157.159 243.914 162.674 238.456 162.923H238.475ZM150.55 207.91C150.761 212.296 148.194 215.724 143.158 216.72C137.814 217.773 131.667 211.702 131.035 205.037C130.537 199.637 132.873 196.304 137.987 195.577C144.019 194.715 149.88 200.135 150.55 207.891V207.91ZM187.091 150.628C187.302 158.039 182.418 163.459 176.539 163.536C171.425 163.613 168.763 160.414 168.495 154.937C168.208 149 173.072 143.752 178.722 143.867C183.51 143.963 186.785 146.185 187.072 150.609L187.091 150.628ZM211.414 142.316C207.564 142.278 203.964 140.669 203.351 134.809C202.776 129.197 207.162 124.563 212.984 124.409C217.715 124.294 221.009 126.439 221.373 132.223C221.698 137.356 217.37 141.876 211.414 142.297V142.316ZM151.527 169.415C151.91 175.352 147.448 180.811 142.487 180.791C137.604 180.791 134.903 177.727 134.444 172.575C133.946 167.022 137.757 162.119 142.679 161.966C147.831 161.812 150.742 164.723 151.546 169.435L151.527 169.415ZM243.263 121.058C238.858 120.809 235.468 118.74 235.162 113.129C234.836 107.269 238.207 104.645 242.669 104.511C247.055 104.377 250.674 106.809 250.847 112.325C251.019 117.802 247.725 120.388 243.263 121.058ZM264.923 85.5891C271.358 86.8723 274.327 89.9557 274.537 95.5863C274.729 100.757 271.645 103.381 267.834 103.113C263.372 102.826 259.695 99.4549 260.154 93.8052C260.423 90.626 263.583 87.7724 264.923 85.57V85.5891ZM105.908 184.392C105.984 179.527 107.114 175.257 112.611 175.18C117.629 175.123 119.467 178.953 119.85 183.53C120.252 188.414 118.759 192.627 113.626 193.049C108.225 193.508 106.674 189.084 105.889 184.392H105.908Z" fill="black"/>
<path d="M144.077 141.378C149.899 145.476 165.584 135.23 153.384 128.776C147.409 125.616 140.208 132.97 142.449 139.194C142.794 140.152 143.349 140.88 144.077 141.378Z" fill="black"/>
<path d="M114.775 155.339C118.222 159.821 132.548 155.646 124.81 147.889C121.018 144.097 113.817 148.042 114.066 153.29C114.105 154.094 114.354 154.784 114.775 155.32V155.339Z" fill="black"/>
<path d="M181.691 124.773C187.264 128.604 202.029 119.43 190.366 113.359C184.659 110.39 177.937 117.036 180.139 122.743C180.484 123.624 181.02 124.294 181.71 124.754L181.691 124.773Z" fill="black"/>
<path d="M211.873 109.26C217.351 112.938 231.599 104.53 220.147 98.6888C214.555 95.8352 208.081 101.964 210.322 107.345C210.667 108.188 211.203 108.801 211.873 109.26Z" fill="black"/>
<path d="M238.341 90.3387C242.42 93.0774 253.03 86.8148 244.508 82.4674C240.333 80.3416 235.526 84.8997 237.192 88.9215C237.441 89.5344 237.843 90.0131 238.341 90.3387Z" fill="black"/>
</svg>
