<svg width="170" height="179" viewBox="0 0 170 179" fill="none" xmlns="http://www.w3.org/2000/svg">
<path fill-rule="evenodd" clip-rule="evenodd" d="M114.013 35.5206C108.816 25.8041 99.1445 19.8022 89.8158 14.0127C86.0836 11.6964 82.4062 9.41419 79.092 6.9417C78.454 6.46235 77.6836 6.16503 76.8892 6.1893C75.3614 6.23636 75.5098 7.33908 75.696 8.72371C75.8701 10.0175 76.0773 11.5573 74.9812 12.7121C73.8136 13.9378 72.1103 14.5688 70.425 14.4899C68.7398 14.411 67.1327 13.7739 65.622 13.0155C63.0099 11.6988 60.6024 9.99982 58.4657 7.99748C56.4338 6.09376 55.7698 4.09526 54.9366 1.58729C54.8271 1.25752 54.7146 0.918938 54.5957 0.570608C54.5234 0.358238 54.4271 0.11553 54.2165 0.0305823C53.8433 -0.12111 53.5183 0.321832 53.3618 0.691962C51.1108 6.01334 50.527 11.99 51.5803 17.6694C51.6458 18.0203 51.7175 18.3715 51.7892 18.7231L51.7892 18.7231C52.185 20.6632 52.5829 22.614 51.9715 24.5866C51.6164 25.7213 50.864 26.7285 49.7927 27.22C47.7956 28.1397 45.901 27.0093 43.9908 25.8696C42.9017 25.2198 41.8075 24.5669 40.6863 24.2893C39.8617 24.089 39.2057 24.981 39.5909 25.7455C42.528 31.6615 42.1248 38.8336 41.5951 45.5202C41.228 50.1195 40.8729 54.828 41.6613 59.4031C42.3342 63.3361 44.1756 67.1407 46.0528 70.696C26.0954 73.2319 12.875 77.6597 12.875 82.6979C12.875 90.5719 45.1665 96.955 85 96.955C124.834 96.955 157.125 90.5719 157.125 82.6979C157.125 76.9515 139.927 71.9992 115.15 69.7424C119.924 59.1564 119.905 46.5222 114.007 35.4963L114.013 35.5206ZM92.2291 26.128C94.9074 27.5053 91.573 29.4895 90.291 28.6218C90.1346 28.5186 90.0082 28.3669 89.9299 28.1728C89.4063 26.8986 90.917 25.4544 92.2291 26.128ZM98.6451 27.117C100.667 27.5235 101.6 28.5004 101.667 30.2843C101.727 31.9226 100.758 32.7539 99.56 32.669C98.1576 32.5779 97.002 31.51 97.1464 29.72C97.2059 29.0088 97.7187 28.3489 98.1632 27.7768L98.1632 27.7768L98.1636 27.7763C98.3484 27.5384 98.5214 27.3158 98.6451 27.1109V27.117ZM89.2919 35.8424C89.3882 37.6202 90.4536 38.2755 91.8379 38.3544C93.2402 38.142 94.2755 37.3229 94.2213 35.5875C94.1671 33.84 93.0296 33.0694 91.6513 33.1119C90.2489 33.1544 89.1896 33.9856 89.2919 35.8424ZM79.2948 42.711C79.4874 44.5677 80.6189 45.0774 81.8287 45.0895V45.0835C83.7005 44.95 85.0607 43.518 84.9584 41.8919C84.8441 40.0594 83.8088 39.3798 82.3222 39.4162C80.4925 39.4648 79.1142 40.9332 79.2948 42.711ZM90.3332 51.6184C88.7864 51.6912 87.5164 50.241 87.5345 48.4207C87.5585 46.473 88.9368 44.8408 90.6702 44.7194C92.3675 44.5981 93.7217 46.0482 93.6676 47.911C93.6134 49.792 92.0425 51.5395 90.3272 51.6184H90.3332ZM81.1606 51.8732C78.8434 51.8429 77.2664 53.3538 77.2303 55.6534H77.2364C77.2002 57.5587 78.5184 59.0271 80.2156 59.0028C82.0935 58.9725 84.1278 56.9701 84.1639 55.1013C84.2001 53.1475 83.0445 51.9036 81.1606 51.8732ZM69.8212 65.0098C67.7749 65.119 66.2461 63.7356 66.1859 61.6908C66.1257 59.6338 67.7448 57.8439 69.749 57.765C71.6931 57.6861 73.3603 59.2698 73.3603 61.1811C73.3603 63.2623 71.8435 64.9006 69.8212 65.0098ZM54.2507 68.0862C54.7322 69.0691 54.8405 70.8773 53.8113 71.563C53.0048 72.0969 51.8251 71.6782 51.0788 71.1989C49.851 70.4101 48.0514 67.5037 49.1408 66.1384C50.7297 64.1422 53.4803 66.5086 54.2507 68.0862ZM60.3778 68.6626C61.9607 68.3471 62.7672 67.2609 62.701 65.8714V65.8654C62.4904 63.408 60.6486 61.6908 58.7527 61.9638C57.1457 62.1944 56.4114 63.2502 56.5679 64.9613C56.7665 67.0728 58.6986 68.9963 60.3778 68.6626ZM74.1849 47.7229C74.2511 50.0711 72.7163 51.7883 70.8685 51.8126C69.2615 51.8368 68.4249 50.8235 68.3406 49.0882C68.2504 47.2072 69.7791 45.5446 71.5547 45.581C73.0593 45.6114 74.0886 46.3152 74.1788 47.7169L74.1849 47.7229ZM63.008 53.6753C63.1284 55.5563 61.726 57.2856 60.1671 57.2796C58.6324 57.2796 57.7837 56.3087 57.6393 54.6765C57.4828 52.9169 58.6805 51.3635 60.2273 51.315C61.8464 51.2665 62.7612 52.1888 63.014 53.6814L63.008 53.6753ZM50.7779 55.5017C49.0505 55.526 48.6954 56.8791 48.6713 58.4203H48.6653C48.9121 59.9069 49.3996 61.3085 51.0969 61.1629C52.7099 61.0294 53.1794 59.6945 53.053 58.1472C52.9326 56.6971 52.3548 55.4835 50.7779 55.5017ZM101.823 43.427C101.27 43.1657 100.645 43.1908 100.016 43.216C99.4621 43.2382 98.9054 43.2606 98.3923 43.0872C97.0321 42.6261 96.5927 40.9392 96.8575 39.6407C96.996 38.9733 97.6219 38.0995 98.302 37.8932C98.6489 37.7883 99.0179 37.8122 99.3825 37.8357L99.4275 37.8386C100.234 37.8932 101.053 37.9175 101.835 37.7234C102.617 37.5292 103.37 37.0741 103.761 36.3642C104.098 35.7574 104.14 35.0354 104.176 34.3436C104.188 34.1157 104.185 33.8597 104.182 33.5904C104.169 32.4904 104.153 31.17 105.139 30.6484C105.681 30.3632 106.367 30.4785 106.903 30.7819C107.806 31.3045 108.435 32.2434 109.011 33.1022C109.057 33.1708 109.102 33.2388 109.148 33.3061C113.337 39.5133 115.347 47.0373 114.824 54.5248C114.288 62.1519 111.904 70.0278 107.059 75.8771C96.677 88.413 78.9637 92.4965 64.597 86.1133C61.7561 84.8512 59.1981 83.0309 56.9591 80.8769C55.7855 79.7543 54.7021 78.5408 53.6849 77.2787C53.6002 77.1735 53.509 77.0645 53.4151 76.9522C52.6479 76.0355 51.6993 74.9019 52.6377 73.8262C53.6127 72.7037 55.4424 72.1818 56.8749 72.2547C57.4874 72.2873 58.0877 72.4185 58.688 72.5497C59.2026 72.6622 59.7171 72.7746 60.2394 72.825C61.1964 72.916 62.4723 72.7583 63.1163 71.9391C63.3609 71.6256 63.5408 71.2676 63.7212 70.9089C63.9979 70.3582 64.2757 69.8057 64.7896 69.4089C66.0294 68.4441 67.6003 68.2136 69.1231 68.4138C69.4803 68.4611 69.8829 68.5671 70.3028 68.6777C71.5524 69.0069 72.9557 69.3765 73.7756 68.3592C74.073 67.991 74.3593 67.6151 74.6451 67.2399L74.6453 67.2396C75.5509 66.0506 76.4511 64.8687 77.6817 63.9601C78.7411 63.1774 80.0471 62.8801 81.3351 63.1592C81.5544 63.2062 81.7747 63.297 81.9947 63.3878C82.3424 63.5311 82.6897 63.6743 83.0324 63.6446C84.3144 63.5354 84.9645 62.249 85.446 61.2478C86.0599 59.9676 86.7159 58.6873 87.6007 57.5769C88.654 56.2541 90.4475 55.35 92.1448 55.8719C92.327 55.9274 92.4882 55.9969 92.6374 56.0612C93.1239 56.271 93.4809 56.4249 94.0107 55.8537C94.5257 55.3023 94.6381 54.5774 94.7504 53.8542L94.7504 53.8541L94.7504 53.854L94.7504 53.854L94.7505 53.8539L94.7505 53.8538L94.7505 53.8537L94.7505 53.8536C94.8074 53.4868 94.8643 53.1204 94.9736 52.7773C95.2445 51.9157 95.6357 51.0905 96.2015 50.3867C97.2608 49.0639 98.8196 48.3661 100.469 48.178C102.449 47.9474 104.098 44.5738 101.835 43.4209L101.823 43.427ZM88.2688 65.7197C88.1183 66.1142 88.7202 66.4903 89.0933 66.6784C89.5989 66.9272 90.1586 67.0243 90.7184 66.9333C92.0726 66.7088 93.3125 65.5499 93.9745 64.3727C94.3357 63.7295 94.5523 62.874 94.3597 62.1398C94.3116 61.9578 93.4991 60.6593 93.4028 60.9263C92.8611 62.3764 92.0846 63.7053 90.7485 64.5487C90.3934 64.7732 90.0142 64.9613 89.617 65.1008C89.4986 65.1422 89.3578 65.1704 89.2132 65.1995C88.9755 65.2473 88.7275 65.2971 88.5516 65.4103C88.3951 65.5134 88.3049 65.6166 88.2688 65.7197ZM83.8389 68.2682C83.7667 68.2257 83.6885 68.1954 83.6042 68.2014C83.4477 68.2136 83.3153 68.3228 83.2371 68.4563C83.1629 68.5828 83.1158 68.7256 83.0701 68.8641L83.0625 68.8871C82.6954 69.9611 81.9671 70.8894 80.8897 71.2171C80.1775 71.4336 79.4393 71.467 78.7002 71.5005C78.2589 71.5204 77.8173 71.5404 77.3808 71.5993C77.116 71.6358 76.791 71.7207 76.7308 71.9816C76.6826 72.1697 76.803 72.3578 76.9234 72.5034C77.6276 73.3468 78.6929 73.6624 79.7642 73.6442C81.0583 73.626 82.5088 72.8918 83.3153 71.8724C83.8811 71.1625 84.4107 69.4514 84.0616 68.5352C84.0195 68.4259 83.9413 68.3228 83.845 68.2561L83.8389 68.2682ZM101.733 53.02C101.378 52.9588 101.356 53.5921 101.342 54.0148C101.338 54.1368 101.334 54.2412 101.323 54.3064C101.221 54.9314 100.782 55.5988 100.391 56.0782C100.029 56.5272 99.59 56.8973 99.0845 57.1703C98.9352 57.2509 98.7176 57.3063 98.4892 57.3644C98.0638 57.4727 97.6007 57.5905 97.4714 57.8985C97.333 58.2201 97.5978 58.5841 97.9108 58.7479C98.4104 59.0089 98.9761 59.1545 99.5299 59.0453C100.758 58.8086 101.937 57.6194 102.395 56.4726C102.63 55.8719 102.678 55.2287 102.581 54.5976C102.575 54.5537 102.568 54.5099 102.563 54.4663C102.557 54.4217 102.551 54.3773 102.546 54.3332C102.479 53.805 102.418 53.3168 101.829 53.0564C101.793 53.0382 101.763 53.0322 101.733 53.0261V53.02ZM72.4996 75.3431C72.5658 75.1429 72.6079 74.9305 72.632 74.706C72.6501 74.4815 72.644 74.2327 72.5056 74.0568C72.3491 73.8565 72.0602 73.8141 71.8135 73.8687C71.6098 73.9137 71.4267 74.0166 71.2437 74.1194C71.205 74.1412 71.1662 74.163 71.1273 74.1842C69.7911 74.9305 68.1781 75.1672 66.6795 74.8334C66.3845 74.7667 65.9873 74.7303 65.8669 75.0094C65.7827 75.2096 65.9271 75.4341 66.0716 75.598C66.6373 76.2351 67.3235 76.6598 68.0878 76.9935C68.2125 77.0487 68.3288 77.1051 68.4407 77.1593L68.4414 77.1596L68.4417 77.1598L68.442 77.1599C68.9076 77.3855 69.297 77.5742 69.8935 77.4911C71.0972 77.3212 72.1264 76.4839 72.4936 75.3431H72.4996ZM63.5918 40.7997C67.4258 42.8445 62.4964 46.0907 60.6667 44.7922C60.438 44.6345 60.2634 44.4039 60.1551 44.1005C59.4509 42.1285 61.714 39.7985 63.5918 40.7997ZM51.458 49.2156C52.5414 50.6354 57.0434 49.3127 54.6118 46.8552C53.4201 45.6538 51.157 46.9038 51.2353 48.5663C51.2473 48.8212 51.3256 49.0396 51.458 49.2095V49.2156ZM75.2141 35.9152C78.8795 37.8386 74.239 40.7451 72.4876 39.5315L72.4936 39.5255C72.2769 39.3798 72.1084 39.1675 72 38.8884C71.3079 37.0802 73.4205 34.9747 75.2141 35.9152ZM81.9731 34.6167C83.6945 35.7817 88.1725 33.118 84.5732 31.2673C82.8158 30.3632 80.7814 32.3049 81.4856 34.0099C81.5939 34.2769 81.7625 34.4711 81.9731 34.6167Z" fill="white"/>
<path d="M8.50744 132.252H17.0185V138.079H0.891113V110.685H8.50744V132.252Z" fill="white"/>
<path d="M33.0314 121.25H41.7716V127.041H33.0314V131.973H42.9384V138.072H25.4151V110.678H42.9384V116.776H33.0314V121.25Z" fill="white"/>
<path d="M59.7602 133.613L58.2856 138.079H50.2827L60.2684 110.685H69.0515L79.0014 138.079H70.9556L69.481 133.613H59.7602ZM67.5698 127.779L64.6206 118.917L61.7072 127.779H67.5769H67.5698Z" fill="white"/>
<path d="M101.299 119.697C100.855 118.974 100.254 118.416 99.4953 118.029C98.7366 117.643 97.8275 117.449 96.7967 117.449C94.8783 117.449 93.3679 118.072 92.2727 119.318C91.1704 120.563 90.6192 122.231 90.6192 124.328C90.6192 126.683 91.2061 128.48 92.3872 129.711C93.5684 130.943 95.2792 131.558 97.534 131.558C100.204 131.558 102.108 130.356 103.246 127.943H95.5941V122.467H109.817V129.847C109.223 131.3 108.35 132.66 107.198 133.927C106.045 135.194 104.585 136.24 102.824 137.056C101.063 137.872 99.0515 138.28 96.8039 138.28C94.0551 138.28 91.6285 137.693 89.5168 136.512C87.4051 135.331 85.7731 133.691 84.6206 131.58C83.4681 129.468 82.8883 127.056 82.8883 124.336C82.8883 121.615 83.461 119.239 84.6206 117.127C85.7731 115.016 87.398 113.369 89.4953 112.195C91.5927 111.014 94.0122 110.427 96.7609 110.427C100.204 110.427 103.053 111.257 105.308 112.911C107.563 114.572 108.958 116.834 109.503 119.711H101.306L101.299 119.697Z" fill="white"/>
<path d="M125.351 110.685V126.576C125.351 128.051 125.694 129.196 126.382 129.998C127.069 130.799 128.114 131.2 129.51 131.2C130.906 131.2 131.965 130.792 132.674 129.976C133.389 129.16 133.74 128.029 133.74 126.576V110.685H141.357V126.576C141.357 129.089 140.827 131.236 139.76 133.004C138.701 134.779 137.255 136.111 135.43 137.006C133.604 137.9 131.578 138.344 129.345 138.344C127.112 138.344 125.129 137.9 123.382 137.006C121.636 136.111 120.261 134.786 119.266 133.026C118.271 131.265 117.77 129.117 117.77 126.576V110.685H125.351Z" fill="white"/>
<path d="M158.615 121.25H167.355V127.041H158.615V131.973H168.522V138.072H150.999V110.678H168.522V116.776H158.615V121.25Z" fill="white"/>
<path d="M22.4588 151.029V178.037H18.0278V166.226H5.32204V178.037H0.891113V151.029H5.32204V162.611H18.0278V151.029H22.4588Z" fill="white"/>
<path d="M37.1402 172.518L35.2004 178.037H30.5762L40.2541 150.993H45.3865L55.0644 178.037H50.4044L48.4645 172.518H37.1402ZM47.2047 168.903L42.8167 156.355L38.3858 168.903H47.2047Z" fill="white"/>
<path d="M62.7308 157.364C63.962 155.267 65.6299 153.628 67.7415 152.446C69.8532 151.265 72.1653 150.678 74.6778 150.678C77.5554 150.678 80.1109 151.387 82.3514 152.797C84.5919 154.207 86.2169 156.212 87.2262 158.803H81.9005C81.199 157.378 80.2326 156.319 78.9871 155.617C77.7415 154.916 76.3027 154.565 74.6707 154.565C72.8811 154.565 71.292 154.966 69.889 155.768C68.4931 156.57 67.3979 157.722 66.6034 159.225C65.816 160.728 65.4151 162.475 65.4151 164.472C65.4151 166.469 65.8088 168.216 66.6034 169.719C67.3908 171.222 68.486 172.382 69.889 173.198C71.292 174.014 72.8811 174.422 74.6707 174.422C76.3027 174.422 77.7415 174.071 78.9871 173.37C80.2326 172.668 81.199 171.609 81.9005 170.184H87.2262C86.2169 172.776 84.5919 174.773 82.3514 176.169C80.1109 177.565 77.5554 178.266 74.6778 178.266C72.1367 178.266 69.8174 177.679 67.7201 176.498C65.6227 175.317 63.9548 173.678 62.7236 171.58C61.4924 169.483 60.8768 167.114 60.8768 164.472C60.8768 161.831 61.4924 159.461 62.7236 157.364H62.7308Z" fill="white"/>
<path d="M111.163 178.037L100.712 165.954V178.037H96.2813V151.029H100.712V163.348L111.206 151.029H116.761L105.029 164.551L116.954 178.037H111.163Z" fill="white"/>
<path d="M129.195 154.608V162.532H138.522V166.147H129.195V174.422H139.689V178.037H124.771V150.993H139.689V154.608H129.195Z" fill="white"/>
<path d="M163.812 178.037L157.598 167.235H154.22V178.037H149.789V151.029H159.116C161.192 151.029 162.946 151.394 164.384 152.117C165.823 152.84 166.897 153.814 167.613 155.031C168.329 156.247 168.679 157.607 168.679 159.111C168.679 160.872 168.171 162.475 167.147 163.907C166.124 165.345 164.549 166.326 162.423 166.842L169.109 178.03H163.826L163.812 178.037ZM154.22 163.699H159.116C160.777 163.699 162.022 163.284 162.867 162.454C163.712 161.623 164.127 160.514 164.127 159.111C164.127 157.708 163.712 156.62 162.881 155.825C162.051 155.038 160.798 154.637 159.109 154.637H154.213V163.692L154.22 163.699Z" fill="white"/>
</svg>
