<svg width="26" height="26" viewBox="0 0 26 26" fill="none" xmlns="http://www.w3.org/2000/svg">
<rect x="1" y="1" width="24" height="24" rx="3" stroke="white" stroke-width="2" stroke-dasharray="8 21"/>
<path d="M10.5 6C11.3125 6 12 6.6875 12 7.5V10.5C12 11.3438 11.3125 12 10.5 12H7.5C6.65625 12 6 11.3438 6 10.5V7.5C6 6.6875 6.65625 6 7.5 6H10.5ZM10 8H8V10H10V8ZM10.5 14C11.3125 14 12 14.6875 12 15.5V18.5C12 19.3438 11.3125 20 10.5 20H7.5C6.65625 20 6 19.3438 6 18.5V15.5C6 14.6875 6.65625 14 7.5 14H10.5ZM10 16H8V18H10V16ZM14 7.5C14 6.6875 14.6562 6 15.5 6H18.5C19.3125 6 20 6.6875 20 7.5V10.5C20 11.3438 19.3125 12 18.5 12H15.5C14.6562 12 14 11.3438 14 10.5V7.5ZM16 10H18V8H16V10ZM17 19H18V20H17V19ZM20 20H19V19H20V20ZM19 14H20V18H17V17H16V20H14V14H17V15H19V14Z" fill="white"/>
</svg>
